# xmcd
#
# Track frame offsets:
#	150
#	12394
#	28615
#	41668
#	53325
#	68486
#	86547
#	104405
#	120938
#	136504
#	153884
#	171485
#
# Disc length: 2450 seconds
#
# Revision: 0
# Processed by: cddbd v1.5.2PL0 Copyright (c) Steve Scherf et al.
# Submitted via: audiograbber 1.83.01
#
DISCID=8709900c
DTITLE=Slim Lightfoot - Stompin' The Blues
DYEAR=2006
DGENRE=Blues
TTITLE0=Shame, Shame, Shame
TTITLE1=Little Red Rooster
TTITLE2=Guitar Highway
TTITLE3=Blues in my Bottle
TTITLE4=Catfish Blues
TTITLE5=Frankie and Johnny
TTITLE6=Shake Your Hips
TTITLE7=Hi Heel Sneakers
TTITLE8=Dimples
TTITLE9=Love in Vain
TTITLE10=Dust my Broom
TTITLE11=Shake Your Moneymaker
EXTD=
EXTT0=
EXTT1=
EXTT2=
EXTT3=
EXTT4=
EXTT5=
EXTT6=
EXTT7=
EXTT8=
EXTT9=
EXTT10=
EXTT11=
PLAYORDER=
